<svg width="626" height="599" viewBox="0 0 626 599" fill="none" xmlns="http://www.w3.org/2000/svg">
<rect x="216.435" y="138.814" width="136.502" height="136.502" transform="rotate(-45 216.435 138.814)" fill="#2C2C2C"/>
<rect x="463" y="503.292" width="17" height="17" fill="#020B0C"/>
<rect x="49" y="503.292" width="17" height="17" fill="#020B0C"/>
<path fill-rule="evenodd" clip-rule="evenodd" d="M313.012 359.011L94.2925 140.292L58 176.584L312.551 431.135L312.832 430.854L313.293 431.315L567.843 176.764L531.551 140.472L313.012 359.011Z" fill="#1E1E1E"/>
<path d="M95.2925 171.292L349.843 425.843L314.5 460.5L60.9344 205.65L95.2925 171.292Z" fill="#3488dc"/>
<path d="M531.551 170.472L313.293 388.73L313.293 461.315L567.843 206.764L531.551 170.472Z" fill="url(#paint0_linear_505_1462)"/>
<path fill-rule="evenodd" clip-rule="evenodd" d="M313.012 340.011L94.2925 121.292L58 157.584L312.551 412.135L312.832 411.854L313.293 412.315L567.843 157.764L531.551 121.472L313.012 340.011Z" fill="#2C2C2C"/>
<path fill-rule="evenodd" clip-rule="evenodd" d="M313.012 303.831L94.2925 85.1123L58 121.405L312.551 375.955L312.832 375.674L313.293 376.135L567.843 121.585L531.551 85.2921L313.012 303.831Z" fill="#D9D9D9"/>
<rect x="94" y="91.292" width="22" height="166" fill="url(#paint1_linear_505_1462)" fill-opacity="0.18"/>
<path fill-rule="evenodd" clip-rule="evenodd" d="M489.154 0L313.001 178.411L136.926 0.0806538L0.000311158 0.587937L0.697389 1.29199H0.000137155L0.000143988 234.292H0V242.292H97.4873L97.0001 241.803L97.0001 98.5585L313.075 316.796L381.666 247.956L381.376 247.662L529 98.559V241.803L313 458.585L147.307 292.292H0V431.292H30V312.24L49 331.309V445.292H66V348.371L110 392.53V544.292H127V409.592L146 428.66V544.292H163V445.722L244.408 527.425L242.006 529.836L310.598 598.676L313 596.265L315.402 598.676L383.994 529.836L381.592 527.425L463 445.722V487.292H480V428.66L501 407.584V480.292H518V390.523L560 348.371V445.292H577V331.309L596 312.24V431.292H626L626 309.292V1.29199H625.303L626 0.587843L489.154 0ZM0 280.292H135.35L115.422 260.292H0V280.292Z" fill="#020B0C"/>
<defs>
<linearGradient id="paint0_linear_505_1462" x1="295.146" y1="443.169" x2="549.697" y2="188.618" gradientUnits="userSpaceOnUse">
<stop stop-color="#666565"/>
<stop offset="1" stop-color="#343434"/>
</linearGradient>
<linearGradient id="paint1_linear_505_1462" x1="105" y1="91.292" x2="105" y2="257.292" gradientUnits="userSpaceOnUse">
<stop stop-color="#232323" stop-opacity="0.75"/>
<stop offset="0.295" stop-color="#898989" stop-opacity="0.18"/>
</linearGradient>
</defs>
</svg>
