<svg width="401" height="93" viewBox="0 0 401 93" fill="none" xmlns="http://www.w3.org/2000/svg">
    <path
        d="M25 60.6327C32.1724 60.6327 35.0929 55.7231 41.1232 53.184C45.0553 51.5284 49.9644 57.952 52.5791 55.9184C54.7139 54.2579 56.0441 52.0205 58.5664 50.874C61.2081 49.6732 63.9146 50.0422 66.5808 48.3282C69.2789 46.5937 70.1355 46.2068 73.3695 46.2068C76.6084 46.2068 77.4414 42.9633 80.1582 42.8124C83.1329 42.6471 90.1059 41.3566 90.3412 45.3582C90.5133 48.2837 99.0401 40.8731 100.053 41.1624C104.527 42.4408 104.558 46.2068 109.859 46.2068C111.506 46.2068 114.263 45.9991 115.139 44.5096C116.52 42.1616 118.798 41.0317 120.513 43.2367C121.59 44.6211 123.765 49.5068 125.605 49.5068C128.549 49.5068 135.801 48.1796 137.815 45.8296C138.989 44.4595 140.14 42.0228 141.728 41.1152C144.821 39.3476 153.267 37.9744 156.531 39.6066C160.964 41.8231 160.222 47.1884 166.054 45.1696C168.484 44.3284 170.093 43.7078 171.994 42.1524C174.147 40.3906 178.197 40.5377 180.716 39.4181C185.158 37.4439 192.363 35.8496 195.99 40.3138C197.288 41.9108 199.091 48.2629 201.082 48.7054C204.951 49.5651 208.399 47.1335 211.029 44.6982C213.059 42.8191 215.55 41.4977 217.629 39.4181C219.842 37.2055 221.153 35.1751 224.418 35.1751C231.381 35.1751 237.253 38.2989 241.767 42.8124C246.988 48.0336 255.668 49.3925 262.416 51.4869C265.067 52.3097 265.354 51.2343 267.885 50.2611C270.833 49.127 274.002 45.9694 276.182 43.661C278.802 40.8867 280.72 41.1152 284.668 41.1152C286.863 41.1152 289.074 41.0369 291.268 41.1152C292.997 41.177 294.37 42.7181 296.029 42.7181C296.695 42.7181 298.684 38.5079 299.282 37.9095C301.235 35.9566 304.147 34.0216 306.778 33.1008C313.435 30.7709 321.256 31.907 323.891 38.7581C325.5 42.9411 327.238 47.3465 332.189 47.0553C333.524 46.9768 333.843 43.1242 334.923 42.1524C336.204 40.9992 340.166 42.0976 341.052 43.2367C342.273 44.8074 342.175 48.4255 343.645 49.6011C346.17 51.6216 348.947 48.0164 350.858 46.2068C354.127 43.1089 360.172 45.1212 362.738 48.3282C363.619 49.43 366.096 50.7164 367.405 51.2983C369.209 52.1 368.283 54.0791 369.055 55.5412C370.247 57.8001 373.642 59.8567 375.844 61.0099"
        stroke="white" stroke-width="2" stroke-linecap="round" />
    <g filter="url(#filter0_f_615_408)">
        <path
            d="M25 60.6327C32.1724 60.6327 35.0929 55.7231 41.1232 53.184C45.0553 51.5284 49.9644 57.952 52.5791 55.9184C54.7139 54.2579 56.0441 52.0205 58.5664 50.874C61.2081 49.6732 63.9146 50.0422 66.5808 48.3282C69.2789 46.5937 70.1355 46.2068 73.3695 46.2068C76.6084 46.2068 77.4414 42.9633 80.1582 42.8124C83.1329 42.6471 90.1059 41.3566 90.3412 45.3582C90.5133 48.2837 99.0401 40.8731 100.053 41.1624C104.527 42.4408 104.558 46.2068 109.859 46.2068C111.506 46.2068 114.263 45.9991 115.139 44.5096C116.52 42.1616 118.798 41.0317 120.513 43.2367C121.59 44.6211 123.765 49.5068 125.605 49.5068C128.549 49.5068 135.801 48.1796 137.815 45.8296C138.989 44.4595 140.14 42.0228 141.728 41.1152C144.821 39.3476 153.267 37.9744 156.531 39.6066C160.964 41.8231 160.222 47.1884 166.054 45.1696C168.484 44.3284 170.093 43.7078 171.994 42.1524C174.147 40.3906 178.197 40.5377 180.716 39.4181C185.158 37.4439 192.363 35.8496 195.99 40.3138C197.288 41.9108 199.091 48.2629 201.082 48.7054C204.951 49.5651 208.399 47.1335 211.029 44.6982C213.059 42.8191 215.55 41.4977 217.629 39.4181C219.842 37.2055 221.153 35.1751 224.418 35.1751C231.381 35.1751 237.253 38.2989 241.767 42.8124C246.988 48.0336 255.668 49.3925 262.416 51.4869C265.067 52.3097 265.354 51.2343 267.885 50.2611C270.833 49.127 274.002 45.9694 276.182 43.661C278.802 40.8867 280.72 41.1152 284.668 41.1152C286.863 41.1152 289.074 41.0369 291.268 41.1152C292.997 41.177 294.37 42.7181 296.029 42.7181C296.695 42.7181 298.684 38.5079 299.282 37.9095C301.235 35.9566 304.147 34.0216 306.778 33.1008C313.435 30.7709 321.256 31.907 323.891 38.7581C325.5 42.9411 327.238 47.3465 332.189 47.0553C333.524 46.9768 333.843 43.1242 334.923 42.1524C336.204 40.9992 340.166 42.0976 341.052 43.2367C342.273 44.8074 342.175 48.4255 343.645 49.6011C346.17 51.6216 348.947 48.0164 350.858 46.2068C354.127 43.1089 360.172 45.1212 362.738 48.3282C363.619 49.43 366.096 50.7164 367.405 51.2983C369.209 52.1 368.283 54.0791 369.055 55.5412C370.247 57.8001 373.642 59.8567 375.844 61.0099"
            stroke="white" stroke-width="9" stroke-linecap="round" />
    </g>
    <g filter="url(#filter1_f_615_408)">
        <path
            d="M28.1909 53.4644C34.5406 53.4644 39.5663 52.7877 45.1626 55.5859C50.1918 58.1004 55.4214 59.4424 60.4372 61.9503C67.8319 65.6478 73.6059 61.4437 80.7559 58.2259C85.7009 56.0006 87.2449 50.9772 91.8349 48.5615C98.4429 45.0834 106.491 43.2814 113.851 43.2814C118.887 43.2814 125.738 45.9232 130.682 47.3357C134.967 48.5602 141.235 50.5541 143.599 54.6901C146.147 59.149 157.836 48.5622 158.873 47.5243C164.296 42.1014 163.957 38.2557 171.649 37.2941C174.738 36.908 176.277 35.5434 177.542 39.4156C179.102 44.1875 178.014 49.2276 178.391 54.1244C178.738 58.636 198.589 48.1968 200.407 45.3557C203.55 40.4444 202.555 25.012 210.637 25.461C213.917 25.6432 218.354 29.3764 220.396 31.8726C222.197 34.0741 221.169 36.1524 221.716 38.6141C222.031 40.0304 224.276 41.1098 225.252 41.9613C229.444 45.6211 233.517 49.7797 236.755 54.313C239.033 57.5028 241.129 60.9861 242.884 64.4961C243.21 65.1485 243.434 67.2688 243.921 67.7018C245.545 69.1459 260.158 58.6338 261.93 56.0573C265.42 50.9808 264.323 48.3729 270.887 48.3729C275.331 48.3729 274.805 40.9608 281.447 42.6213C287.128 44.0416 291.956 48.6156 295.496 53.0401C296.515 54.3141 298.543 54.7474 299.739 56.0102C300.541 56.8571 301.179 58.7737 302.285 59.216C304.248 60.0011 308.575 55.3392 309.734 54.313C317.366 47.5501 323.088 39.7628 332.08 35.2669C336.826 32.8936 345.669 33.1909 350.654 34.324C358.178 36.034 360.217 45.0347 361.497 51.5787C362.319 55.7786 361.262 60.2563 361.733 64.4961"
            stroke="#9CC4FF" stroke-width="9" stroke-linecap="round" />
    </g>
    <path
        d="M28.1909 53.4644C34.5406 53.4644 39.5663 52.7877 45.1626 55.5859C50.1918 58.1004 55.4214 59.4424 60.4372 61.9503C67.8319 65.6478 73.6059 61.4437 80.7559 58.2259C85.7009 56.0006 87.2449 50.9772 91.8349 48.5615C98.4429 45.0834 106.491 43.2814 113.851 43.2814C118.887 43.2814 125.738 45.9232 130.682 47.3357C134.967 48.5602 141.235 50.5541 143.599 54.6901C146.147 59.149 157.836 48.5622 158.873 47.5243C164.296 42.1014 163.957 38.2557 171.649 37.2941C174.738 36.908 176.277 35.5434 177.542 39.4156C179.102 44.1875 178.014 49.2276 178.391 54.1244C178.738 58.636 198.589 48.1968 200.407 45.3557C203.55 40.4444 202.555 25.012 210.637 25.461C213.917 25.6432 218.354 29.3764 220.396 31.8726C222.197 34.0741 221.169 36.1524 221.716 38.6141C222.031 40.0304 224.276 41.1098 225.252 41.9613C229.444 45.6211 233.517 49.7797 236.755 54.313C239.033 57.5028 241.129 60.9861 242.884 64.4961C243.21 65.1485 243.434 67.2688 243.921 67.7018C245.545 69.1459 260.158 58.6338 261.93 56.0573C265.42 50.9808 264.323 48.3729 270.887 48.3729C275.331 48.3729 274.805 40.9608 281.447 42.6213C287.128 44.0416 291.956 48.6156 295.496 53.0401C296.515 54.3141 298.543 54.7474 299.739 56.0102C300.541 56.8571 301.179 58.7737 302.285 59.216C304.248 60.0011 308.575 55.3392 309.734 54.313C317.366 47.5501 323.088 39.7628 332.08 35.2669C336.826 32.8936 345.669 33.1909 350.654 34.324C358.178 36.034 360.217 45.0347 361.497 51.5787C362.319 55.7786 361.262 60.2563 361.733 64.4961"
        stroke="#9CC4FF" stroke-width="2" stroke-linecap="round" />
    <defs>
        <filter id="filter0_f_615_408" x="0.5" y="7.49976" width="399.845" height="78.0111" filterUnits="userSpaceOnUse"
            color-interpolation-filters="sRGB">
            <feFlood flood-opacity="0" result="BackgroundImageFix" />
            <feBlend mode="normal" in="SourceGraphic" in2="BackgroundImageFix" result="shape" />
            <feGaussianBlur stdDeviation="10" result="effect1_foregroundBlur_615_408" />
        </filter>
        <filter id="filter1_f_615_408" x="3.69092" y="0.951202" width="382.631" height="91.3862"
            filterUnits="userSpaceOnUse" color-interpolation-filters="sRGB">
            <feFlood flood-opacity="0" result="BackgroundImageFix" />
            <feBlend mode="normal" in="SourceGraphic" in2="BackgroundImageFix" result="shape" />
            <feGaussianBlur stdDeviation="10" result="effect1_foregroundBlur_615_408" />
        </filter>
    </defs>
</svg>