<svg viewBox="0 0 470 235" fill="none" xmlns="http://www.w3.org/2000/svg">
    <g clip-path="url(#clip0_612_395)">
        <path
            d="M55.2508 55.3446C62.4232 55.3446 65.3437 50.435 71.374 47.8959C75.3061 46.2403 80.2152 52.6639 82.8299 50.6303C84.9647 48.9698 86.2949 46.7324 88.8172 45.5859C91.4589 44.3851 94.1654 44.7541 96.8316 43.0401C99.5297 41.3056 100.386 40.9187 103.62 40.9187C106.859 40.9187 107.692 37.6752 110.409 37.5243C113.384 37.359 120.357 36.0685 120.592 40.0701C120.764 42.9956 129.291 35.585 130.304 35.8743C134.778 37.1527 134.809 40.9187 140.11 40.9187C141.757 40.9187 144.514 40.711 145.39 39.2215C146.771 36.8735 149.049 35.7436 150.764 37.9486C151.841 39.333 154.016 44.2187 155.856 44.2187C158.8 44.2187 166.052 42.8915 168.066 40.5415C169.24 39.1714 170.391 36.7347 171.979 35.8271C175.072 34.0594 183.518 32.6863 186.782 34.3185C191.215 36.535 190.473 41.9003 196.305 39.8815C198.735 39.0403 200.344 38.4197 202.245 36.8643C204.398 35.1025 208.448 35.2496 210.967 34.1299C215.409 32.1557 222.614 30.5615 226.241 35.0257C227.539 36.6227 229.342 42.9748 231.333 43.4173C235.202 44.277 238.65 41.8454 241.28 39.4101C243.31 37.531 245.801 36.2096 247.88 34.1299C250.093 31.9174 251.404 29.887 254.669 29.887C261.632 29.887 267.504 33.0107 272.018 37.5243C277.239 42.7455 285.919 44.1044 292.667 46.1988C295.318 47.0216 295.605 45.9462 298.136 44.973C301.084 43.8389 304.253 40.6813 306.433 38.3729C309.053 35.5986 310.971 35.8271 314.919 35.8271C317.114 35.8271 319.325 35.7488 321.519 35.8271C323.248 35.8889 324.621 37.43 326.28 37.43C326.946 37.43 328.935 33.2198 329.533 32.6213C331.486 30.6684 334.398 28.7334 337.029 27.8127C343.686 25.4827 351.507 26.6189 354.142 33.4699C355.751 37.653 357.489 42.0584 362.44 41.7672C363.775 41.6887 364.094 37.8361 365.174 36.8643C366.455 35.7111 370.417 36.8095 371.303 37.9486C372.524 39.5193 372.426 43.1374 373.896 44.313C376.421 46.3335 379.198 42.7283 381.109 40.9187C384.378 37.8208 390.423 39.8331 392.989 43.0401C393.87 44.1419 396.347 45.4283 397.656 46.0102C399.46 46.8119 398.534 48.791 399.306 50.2531C400.498 52.512 403.893 54.5686 406.095 55.7218C410.872 58.2244 414.659 57.8904 420.144 57.8904C421.463 57.8904 425.165 57.1732 425.235 58.9276C425.351 61.8282 425.599 65.1991 425.188 68.0735C424.801 70.7854 422.689 72.6716 422.689 75.7107C422.689 78.5394 422.689 81.368 422.689 84.1966C422.689 90.7982 432.284 92.983 436.455 96.7369C439.926 99.8608 441.358 102.62 441.358 107.58C441.358 114.009 440.072 119.179 437.115 124.929C435.279 128.499 432.859 135.16 429.148 136.809C426.231 138.106 428.399 144.131 428.582 146.144C428.962 150.325 428.629 154.672 428.629 158.872C428.629 163.772 424.335 168.468 420.144 170.564C416.874 172.199 411.667 170.169 408.075 171.413C402.032 173.504 396.264 182.965 393.46 188.573C391.056 193.382 388.941 195.513 383.183 194.466C380.96 194.062 379.457 192.496 377.29 192.014C375.045 191.516 372.363 192.088 370.077 191.967C368.027 191.859 366.269 190.27 364.137 190.27C360.535 190.27 357.396 192.9 353.954 193.664C346.538 195.312 339.971 195.362 332.362 195.362C327.213 195.362 321.637 194.875 317.276 191.967C315.217 190.595 313.094 188.106 310.676 190.27C306.216 194.261 298.451 199.605 292.431 199.605C287.712 199.605 283.33 199.531 278.807 198.709C275.112 198.037 273.209 195.362 269.472 195.362C262.558 195.362 255.643 195.362 248.729 195.362C242.455 195.362 238.739 200.453 232.606 200.453C227.332 200.453 225.686 195.481 219.83 197.53C216.87 198.566 209.58 199.756 207.997 202.527C206.388 205.342 200.259 203.524 198.002 202.622C195.101 201.461 192.495 197.907 189.328 197.907C184.842 197.907 181.255 198.373 177.023 200.029C169.002 203.167 162.238 204.667 155.856 198.285C154.61 197.039 153.884 196.229 152.367 195.362C149.822 193.908 147.685 193.673 145.201 192.627C136.202 188.838 126.505 195.41 118.895 199.416C115.202 201.36 106.416 203.52 103.196 199.557C101.728 197.75 100.64 194.181 98.0574 193.712C95.5016 193.247 92.1343 191.967 89.6186 191.967C87.4852 191.967 86.4767 190.473 85.3285 188.997C82.7377 185.666 78.8536 183.697 74.9569 182.444C70.2453 180.93 63.1099 179.238 58.2209 179.238C52.4006 179.238 53.6317 167.534 52.045 163.964C51.2966 162.28 50.59 159.547 49.1221 158.212C46.9532 156.241 41.8628 154.64 39.1276 153.121C36.9968 151.937 36.514 149.566 34.8847 147.841C33.3732 146.24 29.7932 144.798 29.7932 142.325C29.7932 139.611 31.1411 138.41 32.7161 136.385C34.5074 134.082 34.3319 130.071 33.8476 127.286C32.9086 121.887 31.4904 116.18 31.4904 110.88C31.4904 103.932 42.522 105.175 42.522 100.744C42.522 96.0549 40.8248 92.1013 40.8248 87.591C40.8248 83.2022 43.294 80.4647 45.5392 76.9365C46.6966 75.1176 51.0079 71.1694 51.0079 69.3463C51.0079 67.2249 51.0079 65.1034 51.0079 62.9819"
            stroke="white" stroke-width="2" stroke-linecap="round" />
    </g>
    <g clip-path="url(#clip1_612_395)">
        <g filter="url(#filter0_f_612_395)">
            <path
                d="M55.2508 55.3446C62.4232 55.3446 65.3437 50.435 71.374 47.8959C75.3061 46.2403 80.2152 52.6639 82.8299 50.6303C84.9647 48.9698 86.2949 46.7324 88.8172 45.5859C91.4589 44.3851 94.1654 44.7541 96.8316 43.0401C99.5297 41.3056 100.386 40.9187 103.62 40.9187C106.859 40.9187 107.692 37.6752 110.409 37.5243C113.384 37.359 120.357 36.0685 120.592 40.0701C120.764 42.9956 129.291 35.585 130.304 35.8743C134.778 37.1527 134.809 40.9187 140.11 40.9187C141.757 40.9187 144.514 40.711 145.39 39.2215C146.771 36.8735 149.049 35.7436 150.764 37.9486C151.841 39.333 154.016 44.2187 155.856 44.2187C158.8 44.2187 166.052 42.8915 168.066 40.5415C169.24 39.1714 170.391 36.7347 171.979 35.8271C175.072 34.0595 183.518 32.6863 186.782 34.3185C191.215 36.535 190.473 41.9003 196.305 39.8815C198.735 39.0403 200.344 38.4197 202.245 36.8643C204.398 35.1025 208.448 35.2496 210.967 34.1299C215.409 32.1557 222.614 30.5615 226.241 35.0257C227.539 36.6227 229.342 42.9748 231.333 43.4173C235.202 44.277 238.65 41.8454 241.28 39.4101C243.31 37.531 245.801 36.2096 247.88 34.1299C250.093 31.9174 251.404 29.887 254.669 29.887C261.632 29.887 267.504 33.0108 272.018 37.5243C277.239 42.7455 285.919 44.1044 292.667 46.1988C295.318 47.0216 295.605 45.9462 298.136 44.973C301.084 43.8389 304.253 40.6813 306.433 38.3729C309.053 35.5986 310.971 35.8271 314.919 35.8271C317.114 35.8271 319.325 35.7488 321.519 35.8271C323.248 35.8889 324.621 37.43 326.28 37.43C326.946 37.43 328.935 33.2198 329.533 32.6213C331.486 30.6685 334.398 28.7335 337.029 27.8127C343.686 25.4827 351.507 26.6189 354.142 33.4699C355.751 37.653 357.489 42.0584 362.44 41.7672C363.775 41.6887 364.094 37.8361 365.174 36.8643C366.455 35.7111 370.417 36.8095 371.303 37.9486C372.524 39.5193 372.426 43.1374 373.896 44.313C376.421 46.3335 379.198 42.7283 381.109 40.9187C384.378 37.8208 390.423 39.8331 392.989 43.0401C393.87 44.1419 396.347 45.4283 397.656 46.0102C399.46 46.8119 398.534 48.791 399.306 50.2531C400.498 52.512 403.893 54.5686 406.095 55.7218C410.872 58.2244 414.659 57.8904 420.144 57.8904C421.463 57.8904 425.165 57.1732 425.235 58.9276C425.351 61.8282 425.599 65.1991 425.188 68.0735C424.801 70.7854 422.689 72.6716 422.689 75.7107C422.689 78.5394 422.689 81.368 422.689 84.1966C422.689 90.7982 432.284 92.983 436.455 96.7369C439.926 99.8608 441.358 102.62 441.358 107.58C441.358 114.009 440.072 119.179 437.115 124.929C435.279 128.499 432.859 135.16 429.148 136.809C426.231 138.106 428.399 144.131 428.582 146.144C428.962 150.325 428.629 154.672 428.629 158.872C428.629 163.772 424.335 168.468 420.144 170.564C416.874 172.199 411.667 170.169 408.075 171.413C402.032 173.504 396.264 182.965 393.46 188.573C391.056 193.382 388.941 195.513 383.183 194.466C380.96 194.062 379.457 192.496 377.29 192.014C375.045 191.516 372.363 192.088 370.077 191.967C368.027 191.859 366.269 190.27 364.137 190.27C360.535 190.27 357.396 192.9 353.954 193.664C346.538 195.312 339.971 195.362 332.362 195.362C327.213 195.362 321.637 194.875 317.276 191.967C315.217 190.595 313.094 188.106 310.676 190.27C306.216 194.261 298.451 199.605 292.431 199.605C287.712 199.605 283.33 199.531 278.807 198.709C275.112 198.037 273.209 195.362 269.472 195.362C262.558 195.362 255.643 195.362 248.729 195.362C242.455 195.362 238.739 200.453 232.606 200.453C227.332 200.453 225.686 195.481 219.83 197.53C216.87 198.566 209.58 199.756 207.997 202.527C206.388 205.342 200.259 203.524 198.002 202.622C195.101 201.461 192.495 197.907 189.328 197.907C184.842 197.907 181.255 198.373 177.023 200.029C169.002 203.167 162.238 204.667 155.856 198.285C154.61 197.039 153.884 196.229 152.367 195.362C149.822 193.908 147.685 193.673 145.201 192.627C136.202 188.838 126.505 195.41 118.895 199.416C115.202 201.36 106.416 203.52 103.196 199.557C101.728 197.75 100.64 194.181 98.0573 193.712C95.5015 193.247 92.1343 191.967 89.6186 191.967C87.4852 191.967 86.4767 190.473 85.3285 188.997C82.7377 185.666 78.8536 183.697 74.9569 182.444C70.2453 180.93 63.1099 179.238 58.2209 179.238C52.4006 179.238 53.6317 167.534 52.045 163.964C51.2966 162.28 50.59 159.547 49.1221 158.212C46.9532 156.241 41.8628 154.64 39.1276 153.121C36.9967 151.937 36.5139 149.566 34.8847 147.841C33.3732 146.24 29.7932 144.798 29.7932 142.325C29.7932 139.611 31.141 138.41 32.7161 136.385C34.5074 134.082 34.3318 130.071 33.8475 127.286C32.9085 121.887 31.4903 116.18 31.4903 110.88C31.4903 103.932 42.522 105.175 42.522 100.744C42.522 96.0549 40.8248 92.1013 40.8248 87.591C40.8248 83.2022 43.294 80.4647 45.5392 76.9365C46.6966 75.1176 51.0079 71.1694 51.0079 69.3463C51.0079 67.2249 51.0079 65.1034 51.0079 62.9819"
                stroke="white" stroke-width="11" stroke-linecap="round" />
        </g>
    </g>
    <g clip-path="url(#clip2_612_395)">
        <path
            d="M65.1909 48.4644C71.5406 48.4644 76.5663 47.7877 82.1626 50.5859C87.1918 53.1004 92.4214 54.4424 97.4372 56.9503C104.832 60.6478 110.606 56.4437 117.756 53.2259C122.701 51.0006 124.245 45.9772 128.835 43.5615C135.443 40.0834 143.491 38.2814 150.851 38.2814C155.887 38.2814 162.738 40.9232 167.682 42.3357C171.967 43.5602 178.235 45.5541 180.599 49.6901C183.147 54.149 194.836 43.5622 195.873 42.5243C201.296 37.1014 200.957 33.2557 208.649 32.2941C211.738 31.908 213.277 30.5434 214.542 34.4156C216.102 39.1875 215.014 44.2276 215.391 49.1244C215.738 53.636 235.589 43.1968 237.407 40.3557C240.55 35.4444 239.555 20.012 247.637 20.461C250.917 20.6432 255.354 24.3764 257.396 26.8726C259.197 29.0741 258.169 31.1524 258.716 33.6141C259.031 35.0304 261.276 36.1098 262.252 36.9613C266.444 40.6211 270.517 44.7797 273.755 49.313C276.033 52.5028 278.129 55.9861 279.884 59.4961C280.21 60.1485 280.434 62.2688 280.921 62.7018C282.545 64.1459 297.158 53.6338 298.93 51.0573C302.42 45.9808 301.323 43.3729 307.887 43.3729C312.331 43.3729 311.805 35.9608 318.447 37.6213C324.128 39.0416 328.956 43.6156 332.496 48.0401C333.515 49.3141 335.543 49.7474 336.739 51.0102C337.541 51.8571 338.179 53.7737 339.285 54.216C341.248 55.0011 345.575 50.3392 346.734 49.313C354.366 42.5501 360.088 34.7628 369.08 30.2669C373.826 27.8936 382.669 28.1909 387.654 29.324C395.178 31.034 397.217 40.0347 398.497 46.5787C399.319 50.7786 398.262 55.2563 398.733 59.4961C399.016 62.0392 400.82 67.9819 403.777 67.9819C410.346 67.9819 416.915 67.9819 423.484 67.9819C433.708 67.9819 437.721 73.2758 437.721 83.2565C437.721 85.601 435.698 87.1383 434.751 89.2438C432.859 93.4479 431.867 97.5287 430.508 101.878C429.168 106.167 430.619 110.62 430.932 114.843C431.267 119.368 434.042 122.165 438.145 123.989C440.536 125.051 442.85 129.376 443.85 131.626C445.999 136.462 444.51 144.169 444.51 149.446C444.51 154.99 442.045 160.888 437.202 163.495C430.129 167.304 424.484 171.716 419.052 177.45C415.117 181.603 408.647 181.427 403.777 183.861C399.15 186.175 393.841 189.872 388.314 188.293C384.896 187.316 381.617 186.004 377.896 186.831C375.959 187.262 373.439 190.073 371.531 191.027C368.516 192.535 366.008 194.269 363.234 196.119C357.442 199.98 351.545 202.749 344.848 204.982C341.013 206.26 338.209 201.035 335.042 199.702C332.64 198.69 329.154 198.393 326.556 197.816C322.832 196.988 319.348 195.177 315.572 194.421C310.446 193.396 306.007 192.626 300.721 192.724C293.186 192.864 286.635 195.462 279.931 198.617C275.549 200.679 271.344 204.033 266.731 205.453C259.157 207.783 248.117 212.804 240.849 207.15C237.378 204.451 233.594 200.362 228.968 200.362C221.897 200.362 214.825 200.362 207.754 200.362C203.713 200.362 198.615 199.517 194.601 200.409C189.553 201.53 187.568 209.356 181.447 209.696C177.561 209.912 172.187 210.586 168.719 208.659C166.742 207.561 165.175 205.843 162.779 205.5C158.368 204.87 157.163 202.89 153.444 199.984C144.911 193.318 140.066 198.177 131.192 202.059C125.388 204.598 118.607 207.15 112.24 207.15C109.677 207.15 107.344 206.526 105.075 205.265C103.567 204.427 103.762 200.987 103.189 199.513C102.503 197.75 103.535 194.72 103.33 192.677C103.052 189.896 102.396 186.533 101.633 183.861C100.878 181.217 89.2816 182.279 87.2542 182.73C85.4931 183.121 81.27 183.701 80.4655 185.511C78.563 189.792 74.2805 194.872 70.6596 197.769C64.1694 202.961 58.4452 203.092 52.4149 197.816C49.9014 195.616 46.0119 194.622 45.0134 191.027C43.3614 185.08 44.5719 178.91 46.7105 173.207C48.4022 168.696 51.1371 164.958 53.6878 160.949C55.1225 158.695 55.3359 155.722 56.2807 153.265C57.4927 150.114 55.2728 136.983 52.0849 136.718C43.2468 135.981 33.3844 132.826 26.5802 127.383C24.7098 125.887 25.224 119.637 25.3073 117.389C25.5763 110.125 36.8741 108.933 40.9119 104.895C42.0578 103.75 42.7971 102.256 43.9762 101.077C46.5298 98.5233 49.7401 97.3006 52.2735 94.9482C56.2752 91.2323 56.705 89.3622 56.705 84.1051"
            stroke="#3488DC" stroke-width="2" stroke-linecap="round" />
    </g>
    <g clip-path="url(#clip3_612_395)">
        <g filter="url(#filter1_f_612_395)">
            <path
                d="M65.1909 48.4644C71.5406 48.4644 76.5663 47.7877 82.1626 50.5859C87.1918 53.1004 92.4214 54.4424 97.4372 56.9503C104.832 60.6478 110.606 56.4437 117.756 53.2259C122.701 51.0006 124.245 45.9772 128.835 43.5615C135.443 40.0834 143.491 38.2814 150.851 38.2814C155.887 38.2814 162.738 40.9232 167.682 42.3357C171.967 43.5602 178.235 45.5541 180.599 49.6901C183.147 54.149 194.836 43.5622 195.873 42.5243C201.296 37.1014 200.957 33.2557 208.649 32.2941C211.738 31.908 213.277 30.5434 214.542 34.4156C216.102 39.1875 215.014 44.2276 215.391 49.1244C215.738 53.636 235.589 43.1968 237.407 40.3557C240.55 35.4444 239.555 20.012 247.637 20.461C250.917 20.6432 255.354 24.3764 257.396 26.8726C259.197 29.0741 258.169 31.1524 258.716 33.6141C259.031 35.0304 261.276 36.1098 262.252 36.9613C266.444 40.6211 270.517 44.7797 273.755 49.313C276.033 52.5028 278.129 55.9861 279.884 59.4961C280.21 60.1485 280.434 62.2688 280.921 62.7018C282.545 64.1459 297.158 53.6338 298.93 51.0573C302.42 45.9808 301.323 43.3729 307.887 43.3729C312.331 43.3729 311.805 35.9608 318.447 37.6213C324.128 39.0416 328.956 43.6156 332.496 48.0401C333.515 49.3141 335.543 49.7474 336.739 51.0102C337.541 51.8571 338.179 53.7737 339.285 54.216C341.248 55.0011 345.575 50.3392 346.734 49.313C354.366 42.5501 360.088 34.7628 369.08 30.2669C373.826 27.8936 382.669 28.1909 387.654 29.324C395.178 31.034 397.217 40.0347 398.497 46.5787C399.319 50.7786 398.262 55.2563 398.733 59.4961C399.016 62.0392 400.82 67.9819 403.777 67.9819C410.346 67.9819 416.915 67.9819 423.484 67.9819C433.708 67.9819 437.721 73.2758 437.721 83.2565C437.721 85.601 435.698 87.1383 434.751 89.2438C432.859 93.4479 431.867 97.529 430.508 101.878C429.168 106.167 430.619 110.62 430.932 114.843C431.267 119.368 434.042 122.165 438.145 123.989C440.536 125.051 442.85 129.376 443.85 131.626C445.999 136.462 444.51 144.169 444.51 149.446C444.51 154.99 442.045 160.888 437.202 163.495C430.129 167.304 424.484 171.716 419.052 177.45C415.117 181.603 408.647 181.427 403.777 183.861C399.15 186.175 393.841 189.872 388.314 188.293C384.896 187.316 381.617 186.004 377.896 186.831C375.959 187.262 373.439 190.073 371.531 191.027C368.516 192.535 366.008 194.269 363.234 196.119C357.442 199.98 351.545 202.749 344.848 204.982C341.013 206.26 338.209 201.035 335.042 199.702C332.64 198.69 329.154 198.393 326.556 197.816C322.832 196.988 319.348 195.177 315.572 194.421C310.446 193.396 306.007 192.626 300.721 192.724C293.186 192.864 286.635 195.462 279.931 198.617C275.549 200.679 271.344 204.033 266.731 205.453C259.157 207.783 248.117 212.804 240.849 207.15C237.378 204.451 233.594 200.362 228.968 200.362C221.897 200.362 214.825 200.362 207.754 200.362C203.713 200.362 198.615 199.517 194.601 200.409C189.553 201.53 187.568 209.356 181.447 209.696C177.561 209.912 172.187 210.586 168.719 208.659C166.742 207.561 165.175 205.843 162.779 205.5C158.368 204.87 157.163 202.89 153.444 199.984C144.911 193.318 140.066 198.177 131.192 202.059C125.388 204.598 118.607 207.15 112.24 207.15C109.677 207.15 107.344 206.526 105.075 205.265C103.567 204.427 103.762 200.987 103.189 199.513C102.503 197.75 103.535 194.72 103.33 192.677C103.052 189.896 102.397 186.533 101.633 183.861C100.878 181.217 89.2816 182.279 87.2542 182.73C85.4931 183.121 81.27 183.701 80.4655 185.511C78.563 189.792 74.2805 194.872 70.6596 197.769C64.1694 202.961 58.4452 203.092 52.4149 197.816C49.9014 195.616 46.0119 194.622 45.0134 191.027C43.3614 185.08 44.5719 178.91 46.7105 173.207C48.4022 168.696 51.1371 164.958 53.6878 160.949C55.1225 158.695 55.3359 155.722 56.2807 153.265C57.4927 150.114 55.2728 136.983 52.0849 136.718C43.2468 135.981 33.3844 132.826 26.5802 127.383C24.7098 125.887 25.224 119.637 25.3073 117.389C25.5763 110.125 36.8741 108.933 40.9119 104.895C42.0578 103.75 42.7971 102.256 43.9762 101.077C46.5298 98.523 49.7401 97.301 52.2735 94.9482C56.2752 91.2323 56.705 89.3622 56.705 84.1051"
                stroke="#9CC4FF" stroke-width="9" stroke-linecap="round" />
        </g>
    </g>
    <defs>
        <filter id="filter0_f_612_395" x="5.29321" y="2.21155" width="460.565" height="226.325"
            filterUnits="userSpaceOnUse" color-interpolation-filters="sRGB">
            <feFlood flood-opacity="0" result="BackgroundImageFix" />
            <feBlend mode="normal" in="SourceGraphic" in2="BackgroundImageFix" result="shape" />
            <feGaussianBlur stdDeviation="9.5" result="effect1_foregroundBlur_612_395" />
        </filter>
        <filter id="filter1_f_612_395" x="0.680908" y="-4.04883" width="468.832" height="238.536"
            filterUnits="userSpaceOnUse" color-interpolation-filters="sRGB">
            <feFlood flood-opacity="0" result="BackgroundImageFix" />
            <feBlend mode="normal" in="SourceGraphic" in2="BackgroundImageFix" result="shape" />
            <feGaussianBlur stdDeviation="10" result="effect1_foregroundBlur_612_395" />
        </filter>
        <clipPath id="clip0_612_395">
            <rect width="415" height="181" fill="white" transform="translate(28 25)" />
        </clipPath>
        <clipPath id="clip1_612_395">
            <rect width="461" height="227" fill="white" transform="translate(5 2)" />
        </clipPath>
        <clipPath id="clip2_612_395">
            <rect width="423" height="192" fill="white" transform="translate(24 19)" />
        </clipPath>
        <clipPath id="clip3_612_395">
            <rect width="470" height="240" fill="white" transform="translate(0 -5)" />
        </clipPath>
    </defs>
</svg>