<svg width="694" height="47" viewBox="0 0 694 47" fill="none" xmlns="http://www.w3.org/2000/svg">
    <path
        d="M692.57 24.0381C692.123 24.8414 683.366 34.0973 683.759 24.0381C684.189 13.0426 671.509 34.5715 666.567 24.0381C660.764 11.6728 654.306 8.79336 649.625 11.2786C640.757 15.9867 635.115 24.1414 627.588 31.2234C626.445 32.2981 622.178 37.1799 620.242 36.3578C619.151 35.8946 618.522 33.8876 617.731 33.0007C616.551 31.6783 614.551 31.2246 613.546 29.8905C610.055 25.2572 605.294 20.4674 599.691 18.9801C593.141 17.2412 593.66 25.0031 589.277 25.0031C582.804 25.0031 583.886 27.734 580.444 33.05C578.696 35.7481 564.285 46.7562 562.684 45.244C562.203 44.7906 561.982 42.5702 561.661 41.887C559.93 38.2114 557.863 34.5638 555.616 31.2234C552.423 26.4762 548.406 22.1214 544.272 18.2889C543.31 17.3972 541.096 16.2669 540.785 14.7838C540.246 12.2059 541.259 10.0296 539.483 7.72418C537.47 5.1102 533.094 1.20085 529.859 1.01005C521.889 0.539863 522.87 16.7004 519.77 21.8435C517.977 24.8186 498.401 35.7504 498.058 31.0259C497.687 25.8981 498.76 20.6202 497.221 15.6231C495.974 11.5682 494.456 12.9972 491.409 13.4015C483.824 14.4085 484.158 18.4356 478.81 24.1144C477.787 25.2013 466.26 36.2876 463.747 31.6183C461.415 27.2872 455.234 25.1992 451.008 23.9169C446.132 22.4378 439.376 19.6713 434.409 19.6713C427.151 19.6713 419.214 21.5583 412.697 25.2006C408.171 27.7302 406.648 32.9907 401.771 35.321C394.72 38.6906 389.026 43.0931 381.733 39.2211C376.787 36.5949 371.629 35.1896 366.669 32.5564C361.15 29.6262 356.194 30.3348 349.932 30.3348H343.638C337.376 30.3348 332.42 29.6262 326.901 32.5564C321.941 35.1896 316.784 36.5949 311.837 39.2211C304.544 43.0931 298.85 38.6906 291.799 35.321C286.922 32.9907 285.4 27.7302 280.873 25.2006C274.356 21.5583 266.419 19.6713 259.161 19.6713C254.194 19.6713 247.438 22.4378 242.562 23.9169C238.336 25.1992 232.155 27.2872 229.824 31.6183C227.311 36.2876 215.783 25.2013 214.761 24.1144C209.412 18.4356 209.747 14.4085 202.161 13.4015C199.115 12.9972 197.597 11.5682 196.349 15.6231C194.811 20.6202 195.884 25.8981 195.512 31.0259C195.17 35.7504 175.593 24.8186 173.8 21.8435C170.7 16.7004 171.682 0.539863 163.711 1.01005C160.477 1.20085 156.101 5.1102 154.087 7.72418C152.311 10.0296 153.325 12.2059 152.785 14.7838C152.475 16.2669 150.261 17.3972 149.298 18.2889C145.164 22.1214 141.147 26.4762 137.954 31.2234C135.707 34.5638 133.64 38.2114 131.909 41.887C131.588 42.5702 131.367 44.7906 130.887 45.244C129.285 46.7562 114.874 35.7481 113.126 33.05C109.685 27.734 110.766 25.0031 104.293 25.0031C99.9105 25.0031 100.429 17.2412 93.8789 18.9801C88.2763 20.4674 83.515 25.2572 80.0239 29.8905C79.019 31.2246 77.0189 31.6783 75.8394 33.0007C75.0485 33.8876 74.4193 35.8946 73.3286 36.3578C71.3927 37.1799 67.1254 32.2981 65.9825 31.2234C58.4558 24.1414 52.8129 15.9867 43.945 11.2786C39.2646 8.79336 32.8062 11.6728 27.0037 24.0381C22.0609 34.5715 9.38135 13.0426 9.81119 24.0381C10.2044 34.0973 1.4476 24.8414 1 24.0381"
        stroke="transparent" stroke-width="2" stroke-linecap="round" />
</svg>