<svg width="721" height="24" viewBox="0 0 721 24" fill="none" xmlns="http://www.w3.org/2000/svg">
    <path
        d="M720 13.8512C712.912 13.8512 698.014 22.4595 692.054 20.1627C688.168 18.665 683.316 24.4757 680.732 22.6362C678.623 21.1341 677.308 19.1102 674.815 18.0731C672.204 16.9869 669.53 17.3207 666.895 15.7702C664.228 14.2012 663.382 13.8512 660.186 13.8512C656.985 13.8512 656.161 10.9172 653.477 10.7807C650.537 10.6312 643.646 9.46383 643.413 13.0836C643.243 15.73 634.816 9.02646 633.815 9.28816C629.393 10.4446 629.363 13.8512 624.124 13.8512C622.496 13.8512 619.771 13.6633 618.906 12.316C617.541 10.192 615.29 9.16993 613.595 11.1645C612.53 12.4168 610.381 16.8363 608.562 16.8363C605.653 16.8363 598.486 15.6358 596.496 13.51C595.335 12.2707 594.198 10.0665 592.628 9.24546C589.572 7.64649 581.225 6.40435 577.999 7.88083C573.618 9.88582 574.351 14.7392 568.588 12.913C566.186 12.1521 564.596 11.5907 562.717 10.1837C560.589 8.59 556.587 8.72307 554.097 7.71025C549.707 5.92441 542.587 4.48231 539.003 8.52053C537.72 9.96515 535.938 15.7111 533.97 16.1114C530.147 16.8891 526.739 14.6895 524.14 12.4866C522.134 10.7868 519.672 9.59146 517.617 7.71025C515.43 5.70883 514.134 3.87217 510.908 3.87217C504.026 3.87217 498.223 6.69785 493.762 10.7807C488.602 15.5037 480.024 16.733 473.355 18.6275C470.735 19.3718 470.452 18.399 467.95 17.5187C465.037 16.4928 461.905 13.6365 459.751 11.5483C457.161 9.03877 455.266 9.24546 451.364 9.24546C449.195 9.24546 447.01 9.17463 444.841 9.24546C443.133 9.30137 441.776 10.6954 440.136 10.6954C439.478 10.6954 437.512 6.88695 436.921 6.3456C434.991 4.57906 432.113 2.82869 429.513 1.99578C422.934 -0.111866 415.205 0.915877 412.601 7.11322C411.011 10.8971 409.293 14.8822 404.4 14.6188C403.081 14.5478 402.766 11.0628 401.698 10.1837C400.432 9.14053 396.517 10.1341 395.641 11.1645C394.434 12.5854 394.531 15.8582 393.078 16.9216C390.583 18.7494 387.839 15.4882 385.95 13.8512C382.719 11.0489 376.745 12.8692 374.209 15.7702C373.339 16.7669 370.891 17.9305 369.597 18.4569C367.814 19.1821 368.729 20.9724 367.966 22.295C366.788 24.3383 363.934 12.8081 361.758 13.8512C359.582 12.8081 355.726 24.3383 354.548 22.295C353.785 20.9724 354.7 19.1821 352.917 18.4569C351.623 17.9305 349.175 16.7669 348.305 15.7702C345.769 12.8692 339.795 11.0489 336.564 13.8512C334.675 15.4882 331.931 18.7494 329.435 16.9216C327.983 15.8582 328.079 12.5854 326.873 11.1645C325.997 10.1341 322.082 9.14053 320.816 10.1837C319.748 11.0628 319.433 14.5478 318.114 14.6188C313.221 14.8822 311.503 10.8971 309.913 7.11322C307.309 0.915877 299.58 -0.111866 293.001 1.99578C290.4 2.82869 287.523 4.57906 285.592 6.3456C285.001 6.88695 283.036 10.6954 282.378 10.6954C280.738 10.6954 279.381 9.30137 277.672 9.24546C275.504 9.17463 273.319 9.24546 271.15 9.24546C267.248 9.24546 265.353 9.03877 262.763 11.5483C260.609 13.6365 257.477 16.4928 254.563 17.5187C252.062 18.399 251.779 19.3718 249.159 18.6275C242.49 16.733 233.911 15.5037 228.752 10.7807C224.291 6.69785 218.487 3.87217 211.606 3.87217C208.379 3.87217 207.084 5.70883 204.897 7.71025C202.842 9.59146 200.38 10.7868 198.374 12.4866C195.775 14.6895 192.367 16.8891 188.544 16.1114C186.576 15.7111 184.794 9.96515 183.511 8.52053C179.927 4.48231 172.806 5.92441 168.416 7.71025C165.927 8.72307 161.924 8.59 159.797 10.1837C157.918 11.5907 156.328 12.1521 153.926 12.913C148.163 14.7392 148.896 9.88582 144.515 7.88083C141.289 6.40435 132.942 7.64649 129.885 9.24546C128.316 10.0665 127.179 12.2707 126.018 13.51C124.028 15.6358 116.861 16.8363 113.951 16.8363C112.133 16.8363 109.984 12.4168 108.919 11.1645C107.224 9.16993 104.973 10.192 103.608 12.316C102.742 13.6633 100.018 13.8512 98.39 13.8512C93.1511 13.8512 93.1205 10.4446 88.699 9.28816C87.6978 9.02646 79.271 15.73 79.1009 13.0836C78.8684 9.46383 71.9771 10.6312 69.0373 10.7807C66.3523 10.9172 65.5291 13.8512 62.3282 13.8512C59.1321 13.8512 58.2855 14.2012 55.619 15.7702C52.9841 17.3207 50.3093 16.9869 47.6986 18.0731C45.2059 19.1102 43.8913 21.1341 41.7815 22.6362C39.1974 24.4757 34.3459 18.665 30.4599 20.1627C24.5003 22.4595 8.08832 12.316 1 12.316"
        stroke="transparent" stroke-width="2" stroke-linecap="round" />
</svg>