<svg  viewBox="0 0 16 16" fill="none" xmlns="http://www.w3.org/2000/svg">
<path d="M2.53594 4.60146C2.6084 4.28855 2.78653 4.00916 3.04116 3.80905C3.29579 3.60894 3.61182 3.49998 3.9375 3.5H12.5625C12.8882 3.49998 13.2042 3.60894 13.4588 3.80905C13.7135 4.00916 13.8916 4.28855 13.9641 4.60146L8.25 8.04325L2.53594 4.60146ZM2.5 5.41037V10.4424L6.67091 7.92212L2.5 5.41037ZM7.35947 8.33792L2.63728 11.1904C2.75395 11.4328 2.9381 11.6376 3.16828 11.781C3.39846 11.9243 3.66522 12.0003 3.9375 12H12.5625C12.8347 12.0001 13.1014 11.9239 13.3314 11.7805C13.5615 11.637 13.7455 11.4321 13.862 11.1897L9.13981 8.33721L8.25 8.87342L7.35947 8.33721V8.33792ZM9.82909 7.92283L14 10.4424V5.41037L9.82909 7.92212V7.92283Z" fill="currentColor"/>
</svg>
