<svg id="test-123" viewBox="0 0 16 16" fill="none" xmlns="http://www.w3.org/2000/svg">
<path d="M7.75 3C4.84937 3 2.5 5.29409 2.5 8.12647C2.5 10.3949 4.00281 12.3109 6.08969 12.9902C6.35219 13.0351 6.45062 12.8813 6.45062 12.7467C6.45062 12.6249 6.44406 12.2212 6.44406 11.7919C5.125 12.029 4.78375 11.4779 4.67875 11.1895C4.61969 11.0421 4.36375 10.5872 4.14062 10.4654C3.95687 10.3693 3.69437 10.1322 4.13406 10.1258C4.5475 10.1194 4.84281 10.4975 4.94125 10.6513C5.41375 11.4266 6.16844 11.2088 6.47031 11.0742C6.51625 10.741 6.65406 10.5167 6.805 10.3885C5.63687 10.2604 4.41625 9.8182 4.41625 7.85733C4.41625 7.29983 4.61969 6.83844 4.95438 6.47959C4.90188 6.35143 4.71812 5.82597 5.00687 5.12108C5.00687 5.12108 5.44656 4.98651 6.45062 5.64654C6.87062 5.53119 7.31688 5.47352 7.76313 5.47352C8.20938 5.47352 8.65563 5.53119 9.07563 5.64654C10.0797 4.9801 10.5194 5.12108 10.5194 5.12108C10.8081 5.82597 10.6244 6.35143 10.5719 6.47959C10.9066 6.83844 11.11 7.29342 11.11 7.85733C11.11 9.82461 9.88281 10.2604 8.71469 10.3885C8.905 10.5487 9.06906 10.8563 9.06906 11.3369C9.06906 12.0226 9.0625 12.5737 9.0625 12.7467C9.0625 12.8813 9.16094 13.0415 9.42344 12.9902C10.4657 12.6467 11.3714 11.9927 12.013 11.1202C12.6546 10.2477 12.9998 9.20062 13 8.12647C13 5.29409 10.6506 3 7.75 3Z" fill="currentColor"/>
</svg>
