<svg  viewBox="0 0 16 16" fill="none" xmlns="http://www.w3.org/2000/svg">
<path d="M8.25 14C8.25 14 13 9.55781 13 6.1875C13 4.9443 12.4996 3.75201 11.6088 2.87294C10.718 1.99386 9.50978 1.5 8.25 1.5C6.99022 1.5 5.78204 1.99386 4.89124 2.87294C4.00044 3.75201 3.5 4.9443 3.5 6.1875C3.5 9.55781 8.25 14 8.25 14ZM8.25 8.53125C7.62011 8.53125 7.01602 8.28432 6.57062 7.84478C6.12522 7.40524 5.875 6.8091 5.875 6.1875C5.875 5.5659 6.12522 4.96976 6.57062 4.53022C7.01602 4.09068 7.62011 3.84375 8.25 3.84375C8.87989 3.84375 9.48398 4.09068 9.92938 4.53022C10.3748 4.96976 10.625 5.5659 10.625 6.1875C10.625 6.8091 10.3748 7.40524 9.92938 7.84478C9.48398 8.28432 8.87989 8.53125 8.25 8.53125Z" fill="currentColor"/>
</svg>
