<svg width="117" height="67" viewBox="0 0 117 67" fill="none" xmlns="http://www.w3.org/2000/svg">
<path id="lightning-path" d="M31.0001 35L4.50012 20C4.50012 20 34.0897 15.9706 39.0001 29C40.7935 33.7585 38.2877 37.1295 39.7501 42C43.2057 53.509 39.8726 20.8644 48.5001 12.5C56.3032 4.93489 68.612 -4.79264 75.0001 4C81.7169 13.245 57.5075 10.9732 50.5001 20C35.1879 39.7249 100.481 -8.4947 114 12.5C128.419 34.893 55.8922 5.91259 48.5001 31.5C44.9439 43.8097 59.8322 74.8397 53.0001 64C33.6972 33.3745 -17.9561 10.9195 7.50012 45C11.0751 49.7861 16.538 41.625 22.5001 42C30.8708 42.5265 33.8035 52.7776 42.0001 51C50.1141 49.2403 56.0001 35 56.0001 35C56.0001 35 60.0182 48.1952 66.0001 47C72.1304 45.7752 64.9091 35.1279 70.0001 31.5C77.6495 26.049 69.7674 50.5408 78.5001 54C89.792 58.4729 74.0645 13.0295 81.0001 23C85.6379 29.6672 84.5001 43.5 84.5001 43.5C84.5001 43.5 76.7059 -4.11357 90.0001 4C100.559 10.4439 84.7098 31.2591 96.5001 35C100.595 36.2991 107.5 35 107.5 35" stroke="transparent"/>
</svg>
