<svg width="231" height="68" viewBox="0 0 231 68" fill="none" xmlns="http://www.w3.org/2000/svg">

<path d="M-46 45.3546C-46 45.3546 -23.8824 -1.97133 -6.5 0.0638013C13.0764 2.35581 13.3957 68 33 68C52.6043 68 52.8957 0.0638013 72.5 0.0638013C92.1043 0.0638013 92.3957 68 112 68C131.604 68 131.896 0.0638013 151.5 0.0638013C171.104 0.0638013 171.396 68 191 68C210.604 68 210.924 2.35581 230.5 0.0638013C247.882 -1.97133 270 45.3546 270 45.3546" stroke="transparent"/>
<path d="M-46 22.6454C-46 22.6454 -23.8824 69.9713 -6.5 67.9362C13.0764 65.6442 13.3957 0 33 0C52.6043 0 52.8957 67.9362 72.5 67.9362C92.1043 67.9362 92.3957 0 112 0C131.604 0 131.896 67.9362 151.5 67.9362C171.104 67.9362 171.396 0 191 0C210.604 0 210.924 65.6442 230.5 67.9362C247.882 69.9713 270 22.6454 270 22.6454" stroke="transparent"/>
<path d="M289 32.6538C289 32.6538 266.882 61.1886 249.5 59.9615C229.924 58.5796 229.604 19 210 19C190.396 19 190.104 59.9615 170.5 59.9615C150.896 59.9615 150.604 19 131 19C111.396 19 111.104 59.9615 91.5 59.9615C71.8957 59.9615 71.6043 19 52 19C32.3957 19 32.0764 58.5796 12.5 59.9615C-4.8824 61.1886 -27 32.6538 -27 32.6538" stroke="transparent"/>
<path d="M-66 22.9878C-66 22.9878 -43.8824 50.1306 -26.5 48.9634C-6.92358 47.6489 -6.6043 10 13 10C32.6043 10 32.8957 48.9634 52.5 48.9634C72.1043 48.9634 72.3957 10 92 10C111.604 10 111.896 48.9634 131.5 48.9634C151.104 48.9634 151.396 10 171 10C190.604 10 190.924 47.6489 210.5 48.9634C227.882 50.1306 250 22.9878 250 22.9878" stroke="transparent"/>

</svg>
