<svg viewBox="0 0 349 277" fill="none" xmlns="http://www.w3.org/2000/svg">
<circle cx="2" cy="40" r="2" fill="#ABB2BF"/>
<circle cx="16.75" cy="40" r="2" fill="#ABB2BF"/>
<circle cx="31.5" cy="40" r="2" fill="#ABB2BF"/>
<circle cx="46.25" cy="40" r="2" fill="#ABB2BF"/>
<circle cx="61" cy="40" r="2" fill="#ABB2BF"/>
<circle cx="2" cy="54.75" r="2" fill="#ABB2BF"/>
<circle cx="16.75" cy="54.75" r="2" fill="#ABB2BF"/>
<circle cx="31.5" cy="54.75" r="2" fill="#ABB2BF"/>
<circle cx="46.25" cy="54.75" r="2" fill="#ABB2BF"/>
<circle cx="61" cy="54.75" r="2" fill="#ABB2BF"/>
<circle cx="2" cy="69.5" r="2" fill="#ABB2BF"/>
<circle cx="16.75" cy="69.5" r="2" fill="#ABB2BF"/>
<circle cx="31.5" cy="69.5" r="2" fill="#ABB2BF"/>
<circle cx="46.25" cy="69.5" r="2" fill="#ABB2BF"/>
<circle cx="61" cy="69.5" r="2" fill="#ABB2BF"/>
<circle cx="2" cy="84.25" r="2" fill="#ABB2BF"/>
<circle cx="16.75" cy="84.25" r="2" fill="#ABB2BF"/>
<circle cx="31.5" cy="84.25" r="2" fill="#ABB2BF"/>
<circle cx="46.25" cy="84.25" r="2" fill="#ABB2BF"/>
<circle cx="61" cy="84.25" r="2" fill="#ABB2BF"/>
<circle cx="2" cy="99" r="2" fill="#ABB2BF"/>
<circle cx="16.75" cy="99" r="2" fill="#ABB2BF"/>
<circle cx="31.5" cy="99" r="2" fill="#ABB2BF"/>
<circle cx="46.25" cy="99" r="2" fill="#ABB2BF"/>
<circle cx="61" cy="99" r="2" fill="#ABB2BF"/>
<circle cx="179" cy="145" r="2" fill="#ABB2BF"/>
<circle cx="193.75" cy="145" r="2" fill="#ABB2BF"/>
<circle cx="208.5" cy="145" r="2" fill="#ABB2BF"/>
<circle cx="223.25" cy="145" r="2" fill="#ABB2BF"/>
<circle cx="238" cy="145" r="2" fill="#ABB2BF"/>
<circle cx="179" cy="159.75" r="2" fill="#ABB2BF"/>
<circle cx="193.75" cy="159.75" r="2" fill="#ABB2BF"/>
<circle cx="208.5" cy="159.75" r="2" fill="#ABB2BF"/>
<circle cx="223.25" cy="159.75" r="2" fill="#ABB2BF"/>
<circle cx="238" cy="159.75" r="2" fill="#ABB2BF"/>
<circle cx="179" cy="174.5" r="2" fill="#ABB2BF"/>
<circle cx="193.75" cy="174.5" r="2" fill="#ABB2BF"/>
<circle cx="208.5" cy="174.5" r="2" fill="#ABB2BF"/>
<circle cx="223.25" cy="174.5" r="2" fill="#ABB2BF"/>
<circle cx="238" cy="174.5" r="2" fill="#ABB2BF"/>
<circle cx="179" cy="189.25" r="2" fill="#ABB2BF"/>
<circle cx="193.75" cy="189.25" r="2" fill="#ABB2BF"/>
<circle cx="208.5" cy="189.25" r="2" fill="#ABB2BF"/>
<circle cx="223.25" cy="189.25" r="2" fill="#ABB2BF"/>
<circle cx="238" cy="189.25" r="2" fill="#ABB2BF"/>
<circle cx="179" cy="204" r="2" fill="#ABB2BF"/>
<circle cx="193.75" cy="204" r="2" fill="#ABB2BF"/>
<circle cx="208.5" cy="204" r="2" fill="#ABB2BF"/>
<circle cx="223.25" cy="204" r="2" fill="#ABB2BF"/>
<circle cx="238" cy="204" r="2" fill="#ABB2BF"/>
<rect x="297.5" y="193.5" width="51" height="51" stroke="#ABB2BF"/>
<rect x="227.5" y="0.5" width="85" height="85" stroke="#ABB2BF"/>
<path d="M103.506 169.501L126.806 169.601L126.675 169.733H127.5L127.5 246.353H123.085V225.363V224.153L122.23 225.01L118.801 228.452L118.655 228.598V228.805V248.88H116.586V231.885V230.675L115.732 231.532L108.151 239.141L108.005 239.287V239.494V255.198H105.936V242.574V241.363L105.082 242.221L101.291 246.025L101.145 246.171V246.378V256.462H99.0766V249.458V248.248L98.2224 249.105L71.7352 275.688L71.6923 275.645L71.4571 275.881L44.7775 249.105L43.9233 248.248V249.458V266.751H41.8546V246.378V246.171L41.7088 246.025L38.2791 242.583L37.4249 241.726V242.936V266.751H35.3562V239.856V239.649L35.2104 239.503L27.2679 231.532L26.4137 230.675V231.885V248.88H24.345V228.805V228.598L24.1992 228.452L20.7695 225.01L19.9153 224.153V225.363V246.353H15.5V222.262H41.3829L71.1458 252.133L71.5 252.488L71.8541 252.133L110.845 213.001L110.99 212.855V212.648V207.919V206.712L110.137 207.566L71.5528 246.15L71.4696 246.067L71.4189 246.118L32.8632 207.562L32.0096 206.708V207.915V212.236H15.5L15.5 169.733H16.3244L16.1942 169.602L39.5085 169.515L58.9331 189.189L59.2866 189.547L59.6424 189.191L71.4921 177.341L83.3499 189.199L83.7057 189.555L84.0592 189.197L103.506 169.501ZM32.0096 194.813V195.02L32.1561 195.167L71.1485 234.159L71.502 234.513L71.8556 234.159L110.844 195.171L110.99 195.024V194.817V186.791V185.575L110.135 186.439L83.4873 213.354L83.1395 213.705L83.1908 213.757L71.5146 225.476L32.8649 186.439L32.0096 185.575V186.791V194.813ZM38.2282 219.096H15.5V216.486H35.6274L38.2282 219.096ZM99.0766 262.418V260.35H101.145V262.418H99.0766ZM24.345 260.35H26.4137V262.418H24.345V260.35Z" stroke="#54D389"/>
</svg>
