<svg viewBox="0 0 626 597" fill="none" xmlns="http://www.w3.org/2000/svg">
<path d="M489.571 1.0018L623.612 1.57764L622.905 2.29199H625L625 430.292H597V312.241V309.82L595.292 311.535L576.292 330.603L576 330.896V331.309V444.292H561V348.371V345.95L559.292 347.665L517.292 389.817L517 390.11V390.523V479.292H502V407.584V405.164L500.292 406.879L479.292 427.955L479 428.247V428.66V486.292H464V445.722V443.302L462.292 445.016L314.303 593.541L314.065 593.302L313.357 594.013L312.762 594.61L163.708 445.016L162 443.302V445.722V543.292H147V428.66V428.247L146.708 427.954L127.708 408.886L126 407.171V409.592V543.292H111V392.53V392.117L110.708 391.824L66.7084 347.665L65 345.95V348.371V444.292H50V331.309V330.896L49.7084 330.603L30.7084 311.535L29 309.82V312.24V430.292H1V293.292H146.892L312.292 459.291L313 460.002L313.708 459.291L529.709 242.509L530 242.216V241.803V215.607V213.193L528.293 214.9L313.293 429.901L312.832 429.44L312.551 429.721L97.7074 214.878L96.0002 213.171V215.585V241.292H1L1.00024 2.29199H3.09458L2.3888 1.57905L136.51 1.08212L244.641 110.598L245.348 111.314L246.06 110.603L312.957 43.7062L379.898 110.648L380.61 111.359L381.317 110.643L489.571 1.0018ZM96.0002 143V143.414L96.2931 143.707L312.304 359.718L313.011 360.425L313.719 359.718L529.707 143.729L530 143.437V143.022V98.5591V96.1278L528.29 97.8555L380.666 246.958L379.97 247.66L380.258 247.952L313.077 315.376L97.7109 97.855L96.0002 96.1273V98.5586V143ZM132.942 279.292H1V261.292H115.007L132.942 279.292ZM464 519.292V504.292H479V519.292H464ZM50 504.292H65V519.292H50V504.292Z" stroke="currentColor" stroke-width="2"/>
</svg>
